<?xml version="1.0" encoding="UTF-8"?>
<svg id="Capa_2" data-name="Capa 2" xmlns="http://www.w3.org/2000/svg" viewBox="0 0 909.89 609.49">
  <defs>
    <style>
      .cls-1, .cls-2, .cls-3, .cls-4 {
        fill: #fff;
      }

      .cls-5 {
        opacity: .9;
      }

      .cls-2 {
        opacity: .76;
      }

      .cls-3 {
        opacity: .8;
      }

      .cls-4 {
        opacity: .82;
      }
    </style>
  </defs>
  <g id="Layer_1" data-name="Layer 1">
    <rect class="cls-3" x="19.72" y="152.61" width="229.54" height="251.05"/>
    <rect class="cls-1" x="19.72" y="152.61" width="82.51" height="251.05"/>
    <rect class="cls-3" x="249.27" y="152.61" width="272.56" height="251.05"/>
    <polygon class="cls-1" points="773.03 152.61 658.84 403.66 738.79 403.66 778.81 315.68 826.77 403.66 909.89 403.66 773.03 152.61"/>
    <polygon class="cls-1" points="249.27 403.66 102.23 152.61 249.27 152.61 249.27 403.66"/>
    <polygon class="cls-1" points="396.3 403.66 249.27 152.61 396.3 152.61 396.3 403.66"/>
    <path class="cls-4" d="M521.82,152.61c-69.33,0-125.52,56.2-125.52,125.52s56.2,125.52,125.52,125.52V152.61Z"/>
    <path class="cls-3" d="M521.82,403.66c69.33,0,125.52-56.2,125.52-125.52,0-69.33-56.2-125.52-125.52-125.52v251.05Z"/>
    <g>
      <path class="cls-3" d="M60.98,0C27.3,0,0,27.3,0,60.98s27.3,60.98,60.98,60.98V0Z"/>
      <path class="cls-1" d="M60.98,121.96c33.68,0,60.98-27.3,60.98-60.98C121.96,27.3,94.66,0,60.98,0V121.96Z"/>
    </g>
    <g>
      <path class="cls-1" d="M19.72,606.23v-167.43h60.46c9.77,0,18.14,1.01,25.11,3.02,6.98,2.02,12.67,4.88,17.09,8.61,4.42,3.72,7.64,8.18,9.65,13.37,2.01,5.2,3.02,10.89,3.02,17.09s-.78,10.97-2.32,15.23c-1.55,4.26-3.57,7.83-6.05,10.7-2.48,2.87-5.31,5.12-8.49,6.74-3.18,1.63-6.48,2.75-9.88,3.37v.47c11.62,1.71,20.27,6.28,25.93,13.72,5.66,7.44,8.49,16.74,8.49,27.9,0,8.68-1.36,16.05-4.07,22.09-2.71,6.05-6.47,10.93-11.28,14.65-4.81,3.72-10.58,6.39-17.33,8.02-6.74,1.63-14.07,2.44-21.98,2.44H19.72Zm15.82-93.48h40c8.21,0,15.12-.7,20.7-2.09,5.58-1.39,10.08-3.45,13.49-6.16,3.41-2.71,5.85-6.05,7.33-10,1.47-3.95,2.21-8.49,2.21-13.6s-.85-9.73-2.56-13.37c-1.71-3.64-4.42-6.59-8.14-8.83-3.72-2.24-8.57-3.87-14.53-4.88-5.97-1.01-13.3-1.51-21.98-1.51H35.54v60.46Zm0,80h40.23c8.68,0,16.24-.39,22.67-1.17,6.43-.77,11.74-2.36,15.93-4.77,4.18-2.4,7.33-5.82,9.42-10.23,2.09-4.42,3.14-10.27,3.14-17.56s-1.16-12.59-3.49-16.86c-2.32-4.26-5.66-7.56-10-9.88-4.34-2.33-9.53-3.91-15.58-4.77-6.05-.85-12.79-1.28-20.23-1.28H35.54v66.51Z"/>
      <path class="cls-1" d="M228.08,536.01c2.64-.31,5.78-.77,9.42-1.4,3.64-.62,6.63-1.47,8.95-2.56,2.33-1.08,3.76-2.91,4.3-5.46,.54-2.56,.81-4.92,.81-7.09,0-7.13-2.29-12.98-6.86-17.56-4.58-4.57-12.29-6.86-23.14-6.86-4.8,0-9.22,.43-13.25,1.28-4.03,.85-7.56,2.32-10.58,4.42s-5.51,4.88-7.44,8.37c-1.94,3.49-3.22,7.87-3.84,13.14h-14.18c.47-7.13,2.09-13.22,4.88-18.25,2.79-5.04,6.39-9.15,10.81-12.32,4.42-3.18,9.53-5.5,15.35-6.98,5.82-1.47,11.98-2.21,18.49-2.21,6.05,0,11.75,.66,17.09,1.98,5.35,1.32,10,3.41,13.95,6.28,3.95,2.87,7.05,6.71,9.3,11.51,2.24,4.81,3.37,10.7,3.37,17.68v65.58c0,5.43,.97,8.88,2.91,10.35,1.94,1.48,5.85,1.13,11.74-1.05v10.93c-1.09,.31-2.67,.77-4.77,1.39-2.09,.62-4.15,.93-6.16,.93-2.17,0-4.27-.23-6.28-.7-2.33-.32-4.19-1.05-5.58-2.21-1.39-1.16-2.52-2.56-3.37-4.18-.85-1.63-1.43-3.41-1.74-5.35-.32-1.94-.47-3.99-.47-6.16-5.89,6.51-12.64,11.47-20.23,14.88-7.6,3.41-15.81,5.12-24.65,5.12-5.27,0-10.35-.7-15.23-2.09-4.88-1.4-9.18-3.57-12.9-6.51s-6.67-6.55-8.84-10.81c-2.17-4.26-3.26-9.34-3.26-15.23,0-20.47,14.03-32.56,42.09-36.28l19.3-2.56Zm23.49,6.97c-5.89,2.48-11.86,4.11-17.91,4.88-6.05,.78-12.09,1.39-18.14,1.86-10.7,.78-19.03,3.18-25,7.21-5.97,4.03-8.95,10.15-8.95,18.37,0,3.72,.74,6.94,2.21,9.65,1.47,2.71,3.41,4.96,5.82,6.74,2.4,1.78,5.19,3.1,8.37,3.95,3.17,.85,6.39,1.28,9.65,1.28,5.58,0,11.01-.7,16.28-2.09,5.27-1.39,9.96-3.52,14.07-6.39,4.11-2.87,7.4-6.51,9.88-10.93,2.48-4.42,3.72-9.65,3.72-15.69v-18.84Z"/>
      <path class="cls-1" d="M315.98,606.23h-13.95v-120.45h13.95v16.74c5.58-5.89,11.36-10.7,17.33-14.42,5.97-3.72,13.14-5.58,21.51-5.58,7.44,0,14.34,1.28,20.7,3.84,6.36,2.56,11.7,7.02,16.05,13.37,2.94,4.34,4.69,8.8,5.23,13.37,.54,4.58,.81,9.34,.81,14.3v78.83h-13.95v-78.6c0-10.85-2.41-18.99-7.21-24.42-4.81-5.42-12.79-8.14-23.95-8.14-4.34,0-8.29,.66-11.86,1.98-3.57,1.32-6.78,3.06-9.65,5.23-2.87,2.17-5.31,4.65-7.33,7.44s-3.57,5.74-4.65,8.83c-1.39,3.88-2.25,7.6-2.56,11.17-.31,3.57-.47,7.44-.47,11.62v64.88Z"/>
      <path class="cls-1" d="M439.92,549.26c0,6.51,.85,12.67,2.56,18.49,1.7,5.81,4.22,10.85,7.56,15.11,3.33,4.27,7.55,7.67,12.67,10.23,5.12,2.56,11.01,3.84,17.67,3.84,9.15,0,16.98-2.4,23.49-7.21,6.51-4.8,10.85-11.62,13.02-20.46h15.58c-1.71,5.74-3.95,11.05-6.74,15.93-2.79,4.88-6.28,9.15-10.46,12.79-4.19,3.64-9.15,6.48-14.88,8.49-5.74,2.02-12.41,3.02-20,3.02-9.61,0-17.91-1.63-24.88-4.88-6.98-3.26-12.71-7.71-17.21-13.37-4.5-5.66-7.83-12.32-10-20-2.17-7.67-3.26-15.93-3.26-24.76s1.28-17.13,3.84-24.88c2.56-7.75,6.2-14.54,10.93-20.35,4.73-5.82,10.5-10.39,17.33-13.72,6.82-3.33,14.57-5,23.25-5,16.59,0,29.61,5.7,39.07,17.09,9.45,11.39,14.11,27.95,13.95,49.64h-93.48Zm78.6-11.62c0-5.89-.81-11.43-2.44-16.63-1.63-5.19-4.03-9.68-7.21-13.49-3.18-3.8-7.17-6.82-11.98-9.07-4.81-2.24-10.31-3.37-16.51-3.37s-11.67,1.16-16.39,3.49c-4.73,2.32-8.76,5.43-12.09,9.3-3.33,3.88-6.01,8.37-8.02,13.49-2.02,5.12-3.33,10.54-3.95,16.28h78.6Z"/>
      <path class="cls-1" d="M568.75,568.56c2.17,10.39,6.08,17.71,11.74,21.97,5.66,4.27,13.76,6.4,24.3,6.4,5.12,0,9.53-.62,13.26-1.86,3.72-1.24,6.78-2.91,9.19-5,2.4-2.09,4.22-4.46,5.46-7.09,1.24-2.64,1.86-5.42,1.86-8.37,0-5.89-1.9-10.27-5.7-13.14-3.8-2.86-8.57-5.11-14.3-6.74-5.74-1.63-11.94-3.03-18.6-4.19-6.67-1.16-12.87-2.91-18.61-5.23-5.74-2.33-10.5-5.66-14.3-10-3.8-4.34-5.7-10.46-5.7-18.37,0-10.08,3.68-18.33,11.04-24.76,7.36-6.43,17.79-9.65,31.28-9.65s23.6,2.9,31.74,8.72c8.14,5.81,13.06,15.54,14.77,29.18h-14.18c-1.24-9.3-4.77-15.85-10.58-19.65-5.82-3.8-13.14-5.7-21.98-5.7s-15.58,1.9-20.23,5.7c-4.65,3.8-6.98,8.8-6.98,15,0,5.43,1.9,9.57,5.7,12.44,3.8,2.87,8.57,5.2,14.3,6.98,5.73,1.78,11.94,3.37,18.61,4.77,6.66,1.39,12.86,3.37,18.6,5.93,5.73,2.56,10.5,6.01,14.3,10.35,3.8,4.34,5.7,10.39,5.7,18.14,0,5.74-1.24,10.81-3.72,15.23-2.48,4.42-5.89,8.1-10.23,11.05-4.34,2.95-9.5,5.16-15.46,6.63-5.97,1.47-12.52,2.21-19.65,2.21s-13.45-1.05-18.95-3.14c-5.5-2.09-10.19-5-14.07-8.72-3.88-3.72-6.9-8.06-9.07-13.02-2.17-4.96-3.41-10.31-3.72-16.05h14.19Z"/>
      <path class="cls-1" d="M762.23,523.68c-2.48-8.99-6.74-16.01-12.79-21.04-6.05-5.04-13.72-7.56-23.02-7.56-7.13,0-13.26,1.47-18.37,4.42-5.11,2.95-9.3,6.86-12.56,11.74-3.26,4.88-5.66,10.39-7.21,16.51-1.55,6.13-2.33,12.29-2.33,18.49s.74,12.56,2.21,18.61c1.47,6.05,3.84,11.47,7.09,16.28s7.44,8.64,12.56,11.51c5.11,2.87,11.31,4.3,18.6,4.3,10.38,0,18.72-2.87,25-8.61,6.28-5.73,10.27-13.64,11.98-23.72h14.88c-1.24,6.67-3.22,12.75-5.93,18.25-2.71,5.5-6.2,10.23-10.46,14.18-4.27,3.95-9.34,7.02-15.23,9.19-5.89,2.17-12.64,3.26-20.23,3.26-9.61,0-17.91-1.63-24.88-4.88-6.97-3.26-12.71-7.71-17.21-13.37-4.5-5.66-7.83-12.36-10-20.11-2.17-7.75-3.26-16.05-3.26-24.88,0-8.37,1.2-16.39,3.61-24.07,2.4-7.68,5.93-14.46,10.58-20.35,4.65-5.89,10.43-10.58,17.33-14.07,6.9-3.49,14.84-5.23,23.84-5.23,13.95,0,25.23,3.33,33.84,10,8.6,6.67,13.99,17.05,16.16,31.16h-14.18Z"/>
      <path class="cls-1" d="M854.08,609.49c-7.75-.15-15-1.55-21.74-4.18-6.74-2.64-12.64-6.59-17.67-11.86-5.04-5.27-9.03-11.86-11.98-19.77-2.95-7.91-4.42-17.13-4.42-27.67,0-8.83,1.16-17.09,3.49-24.76,2.33-7.67,5.82-14.38,10.47-20.11,4.65-5.73,10.46-10.27,17.44-13.6,6.98-3.33,15.12-5,24.42-5s17.67,1.67,24.65,5c6.98,3.33,12.79,7.83,17.44,13.49,4.65,5.66,8.1,12.36,10.35,20.11,2.24,7.75,3.37,16.05,3.37,24.88,0,9.62-1.32,18.3-3.95,26.05-2.64,7.76-6.4,14.42-11.28,20-4.88,5.58-10.77,9.88-17.67,12.91-6.9,3.02-14.53,4.53-22.9,4.53Zm40.93-63.48c0-7.13-.78-13.79-2.33-20-1.55-6.2-3.95-11.59-7.21-16.16-3.26-4.57-7.44-8.17-12.56-10.81-5.11-2.63-11.39-3.95-18.83-3.95s-13.53,1.43-18.72,4.3c-5.2,2.87-9.42,6.67-12.67,11.39-3.26,4.73-5.66,10.15-7.21,16.28-1.55,6.12-2.33,12.44-2.33,18.95,0,7.44,.89,14.3,2.67,20.58,1.78,6.28,4.38,11.67,7.79,16.16,3.41,4.5,7.67,7.98,12.79,10.46,5.12,2.48,11.01,3.72,17.67,3.72,7.29,0,13.52-1.43,18.72-4.3,5.19-2.86,9.42-6.7,12.67-11.51,3.26-4.8,5.65-10.23,7.21-16.28,1.55-6.05,2.33-12.33,2.33-18.84Z"/>
    </g>
    <polygon class="cls-2" points="778.81 315.68 826.77 403.66 738.79 403.66 778.81 315.68"/>
    <path class="cls-3" d="M521.83,152.61l105.49,193.51c12.65-19.6,20.03-42.92,20.03-67.98,0-69.32-56.2-125.52-125.52-125.52Z"/>
    <g class="cls-5">
      <path class="cls-1" d="M655.26,60.3c-1.71-2.04-3.85-3.67-6.44-4.87-2.58-1.21-5.54-1.81-8.87-1.81s-6.27,.63-8.81,1.88c-2.54,1.25-4.71,2.92-6.5,5-1.79,2.08-3.23,4.5-4.31,7.25-1.08,2.75-1.79,5.67-2.12,8.75h42.24c0-3.17-.44-6.14-1.31-8.93-.88-2.79-2.17-5.21-3.87-7.25Z"/>
      <path class="cls-1" d="M754.17,61.55c-1.75-2.46-4-4.39-6.75-5.81-2.75-1.42-6.12-2.13-10.12-2.13s-7.27,.77-10.06,2.31c-2.79,1.54-5.06,3.58-6.81,6.12-1.75,2.54-3.04,5.46-3.87,8.75-.84,3.29-1.25,6.69-1.25,10.19,0,4,.48,7.69,1.44,11.06,.96,3.37,2.35,6.27,4.19,8.69s4.12,4.29,6.87,5.62c2.75,1.33,5.91,2,9.5,2,3.91,0,7.27-.77,10.06-2.31,2.79-1.54,5.06-3.6,6.81-6.19,1.75-2.58,3.04-5.5,3.87-8.75,.83-3.25,1.25-6.62,1.25-10.12,0-3.83-.42-7.41-1.25-10.75-.83-3.33-2.13-6.23-3.87-8.69Z"/>
      <path class="cls-1" d="M589.96,55.49c1.17-2.25,1.75-4.96,1.75-8.12,0-3.33-.61-6.08-1.81-8.25-1.21-2.16-2.83-3.87-4.87-5.12-2.04-1.25-4.37-2.13-7-2.63-2.62-.5-5.35-.75-8.19-.75h-26.99v34.62h26.49c3.17,0,6.1-.33,8.81-1,2.71-.67,5.06-1.73,7.06-3.19,2-1.46,3.58-3.31,4.75-5.56Z"/>
      <path class="cls-1" d="M438.63,0l83.2,152.61c69.32,0,125.52,56.2,125.52,125.52,0,25.06-7.37,48.39-20.03,67.98l31.37,57.54L842.29,0H438.63Zm162.2,113.22l-9.37,.13c-.92-1.5-1.56-3.58-1.94-6.25-.38-2.67-.67-5.46-.88-8.37-.21-2.92-.38-5.75-.5-8.5-.12-2.75-.35-5-.69-6.75-.5-2.42-1.31-4.35-2.44-5.81-1.12-1.46-2.48-2.56-4.06-3.31-1.59-.75-3.35-1.25-5.31-1.5-1.96-.25-3.98-.38-6.06-.38h-26.74v40.87l-8.5-.13V23.37h35.24c9.91,0,17.5,1.85,22.75,5.56,5.25,3.71,7.87,9.73,7.87,18.06,0,5.67-1.15,10.17-3.44,13.5-2.29,3.33-6.02,6.17-11.18,8.5,2.66,.92,4.75,2.25,6.25,4,1.5,1.75,2.63,3.75,3.37,6,.75,2.25,1.23,4.62,1.44,7.12s.35,4.92,.44,7.25c.08,3.42,.23,6.25,.44,8.5s.46,4.08,.75,5.5c.29,1.42,.64,2.52,1.06,3.31,.41,.79,.92,1.4,1.5,1.81v.75Zm18.74-20.56c.92,3.12,2.27,5.83,4.06,8.12,1.79,2.29,4.06,4.13,6.81,5.5,2.75,1.37,5.91,2.06,9.5,2.06,4.92,0,9.12-1.29,12.62-3.88,3.5-2.58,5.83-6.25,7-11h8.37c-.92,3.08-2.12,5.94-3.62,8.56s-3.37,4.92-5.62,6.87c-2.25,1.96-4.92,3.48-8,4.56-3.08,1.08-6.67,1.62-10.75,1.62-5.17,0-9.62-.88-13.37-2.63s-6.83-4.14-9.25-7.19c-2.42-3.04-4.21-6.62-5.37-10.75-1.17-4.12-1.75-8.56-1.75-13.31s.69-9.21,2.06-13.37c1.37-4.16,3.33-7.81,5.87-10.94,2.54-3.12,5.64-5.58,9.31-7.37,3.67-1.79,7.83-2.69,12.5-2.69,8.91,0,15.91,3.06,21,9.19,5.08,6.12,7.58,15.02,7.5,26.68h-50.24c0,3.5,.46,6.81,1.37,9.94Zm83.11,20.93c-.92,.17-2.13,.46-3.62,.88-1.5,.42-3.17,.63-5,.63-3.75,0-6.6-.94-8.56-2.81-1.96-1.88-2.94-5.23-2.94-10.06V54.86h-9.12v-6.25h9.12V30.61h7.5v18h12.12v6.25h-12.12v44.37c0,1.58,.04,2.96,.13,4.12,.08,1.17,.33,2.13,.75,2.87,.42,.75,1.06,1.29,1.94,1.62,.88,.33,2.1,.5,3.69,.5,1,0,2.02-.08,3.06-.25,1.04-.17,2.06-.38,3.06-.63v6.12Zm56.42-7.87c-2.63,3-5.79,5.31-9.5,6.93-3.71,1.63-7.81,2.44-12.31,2.44-4.17-.08-8.06-.83-11.69-2.25-3.62-1.42-6.79-3.54-9.5-6.37-2.71-2.83-4.85-6.37-6.44-10.62-1.59-4.25-2.38-9.21-2.38-14.87,0-4.75,.63-9.18,1.88-13.31,1.25-4.12,3.12-7.73,5.62-10.81,2.5-3.08,5.62-5.52,9.37-7.31,3.75-1.79,8.12-2.69,13.12-2.69s9.5,.9,13.25,2.69c3.75,1.79,6.87,4.21,9.37,7.25,2.5,3.04,4.35,6.64,5.56,10.81,1.21,4.17,1.81,8.62,1.81,13.37,0,5.17-.71,9.83-2.12,14-1.42,4.17-3.44,7.75-6.06,10.75Z"/>
    </g>
  </g>
</svg>